# xmcd CD database file
# Copyright (C) 1993-1996 Ti Kan
#
# Track frame offsets:
#	150
#	11693
#	35307
#	59391
#	91398
#	117240
#	142600
#	164720
#	194103
#	251301
#	269303
#
# Disc length: 4271 seconds
#
# Revision: 1
# Processed by: cddbd v1.4b41PL1 Copyright (c) Steve Scherf et al.
# Submitted via: CDValet v3.01 - Copyright (c) 1997 Greg Leichner
#
DISCID=9410ad0b
DTITLE=Stevis Ray Vaughan - Lost In Austin-1989
DYEAR=1900
DGENRE=
TTITLE0=House Is Rockin'
TTITLE1=Tightrope
TTITLE2=Little Sister
TTITLE3=Texas Flood
TTITLE4=Leave My Girl Alone
TTITLE5=Wall Of Denial
TTITLE6=Superstition
TTITLE7=Cold Shot
TTITLE8=Without You
TTITLE9=Crossfire
TTITLE10=Voodoo Chile
EXTD=Recorded Live In Austin Texas, 1989\nSoundboard Recording
EXTT0=
EXTT1=
EXTT2=
EXTT3=
EXTT4=
EXTT5=
EXTT6=
EXTT7=
EXTT8=
EXTT9=
EXTT10=
PLAYORDER=
